<svg width="1280" height="501.99999999999994" xmlns="http://www.w3.org/2000/svg">
 <!-- Created with Method Draw - http://github.com/duopixel/Method-Draw/ -->

 <g>
  <title>background</title>
  <rect fill="#fff" id="canvas_background" height="504" width="1282" y="-1" x="-1"/>
  <g display="none" overflow="visible" y="0" x="0" height="100%" width="100%" id="canvasGrid">
   <rect fill="url(#gridpattern)" stroke-width="0" y="0" x="0" height="100%" width="100%"/>
  </g>
 </g>
 <g>
  <title>Layer 1</title>
  <style transform="matrix(0.04938271678524253,0,0,0.04938271678524253,0,0) " type="text/css">.st0{fill:#060001;}</style>
  <g stroke="null" id="svg_61">
   <g stroke="null" transform="matrix(2.227377165839056,0,0,3.3990871725611718,-11598.039987871794,-13202.40887551335) " id="svg_5">
    <path stroke="null" id="svg_6" d="m5563.267286,3950.257989c0.136,-1.491 0.161,-2.996 0.367,-4.477c0.232,-1.674 1.842,-2.547 3.418,-1.895c0.762,0.315 1.353,0.221 2.114,-0.12c3.729,-1.665 7.505,-3.222 11.266,-4.815c0.505,-0.214 1.012,-0.431 1.529,-0.615c3.04,-1.085 5.89,-2.669 9.113,-3.293c1.449,-0.281 2.961,-0.714 4.2,-1.475c1.569,-0.963 3.43,-0.548 4.954,-1.433c0.07,-0.041 0.199,-0.002 0.294,0.022c1.092,0.28 2.289,0.269 3.12,1.246c0.376,0.443 0.855,0.799 1.368,1.269c0.894,-0.376 1.776,-0.812 2.703,-1.108c0.436,-0.139 0.962,-0.044 1.44,0.013c0.327,0.039 0.639,0.201 0.961,0.295c1.175,0.344 1.144,0.319 1.811,-0.589c0.829,-1.13 1.336,-2.609 2.984,-2.911c0.083,-0.015 0.145,-0.133 0.219,-0.2c0.63,-0.568 1.353,-0.793 2.199,-0.644c0.649,0.114 1.284,-0.033 1.384,-0.752c0.16,-1.152 0.924,-1.747 1.738,-2.187c-0.284,-0.651 -0.585,-1.199 -0.764,-1.783c-0.259,-0.848 0.637,-1.123 0.994,-1.62c-0.085,-0.222 -0.11,-0.38 -0.194,-0.494c-1.075,-1.452 -1.069,-1.442 0.274,-2.76c0.134,-0.131 0.102,-0.431 0.147,-0.654c-1.665,-0.314 -1.665,-0.314 -2.439,-1.027c-0.088,-1.035 0.757,-1.204 1.428,-1.425c0.634,-0.208 1.328,-0.233 2.325,-0.39c-1.228,-0.306 -2.214,-0.417 -3.078,-0.803c-0.895,-0.4 -1.67,-1.068 -2.467,-1.598c-0.219,0.229 -0.402,0.422 -0.37,0.388c-1.441,-0.372 -2.639,-0.956 -3.807,-0.901c-1.081,0.05 -1.668,-0.231 -2.078,-1.066c-0.596,0.135 -1.127,0.38 -1.632,0.335c-0.505,-0.045 -0.985,-0.381 -1.581,-0.634c-0.965,0.48 -2.1,0.852 -3.379,0.497c-0.318,-0.089 -0.693,-0.041 -1.03,0.015c-1.074,0.179 -2.14,0.525 -3.206,-0.063c-0.149,-0.082 -0.397,-0.038 -0.583,0.01c-0.952,0.246 -1.906,0.493 -2.846,0.779c-0.569,0.173 -1.105,0.455 -1.675,0.625c-1.142,0.341 -2.307,0.604 -3.443,0.962c-2.038,0.64 -4.049,1.371 -6.098,1.975c-0.994,0.293 -2.087,0.264 -3.063,0.595c-2.221,0.754 -4.506,1.129 -6.817,1.406c-0.196,0.023 -0.441,-0.068 -0.612,-0.183c-0.779,-0.526 -1.553,-1.062 -2.297,-1.636c-0.175,-0.135 -0.25,-0.424 -0.324,-0.657c-0.149,-0.472 -0.266,-0.954 -0.402,-1.452c-0.344,0.025 -0.867,0.141 -0.903,0.054c-0.457,-1.091 -1.3,-0.467 -2.01,-0.562c-1.31,-0.176 -2.871,0.07 -3.501,-1.659c-0.196,-0.536 -0.592,-0.998 -0.932,-1.553c-0.367,0.305 -0.742,0.616 -1.128,0.937c-0.15,-0.216 -0.244,-0.4 -0.383,-0.538c-0.132,-0.131 -0.311,-0.214 -0.357,-0.244c-1.194,1.01 -2.309,1.953 -3.475,2.938c-0.301,-0.536 -0.567,-1.009 -0.933,-1.661c-0.493,0.508 -0.919,0.947 -1.488,1.534c-0.342,-0.281 -0.794,-0.652 -1.324,-1.088c-0.077,0.259 -0.258,0.525 -0.19,0.69c0.359,0.88 0.03,1.497 -0.573,2.14c-1.126,1.2 -2.225,2.433 -3.244,3.725c-0.547,0.694 -1.517,1.234 -1.176,2.412c0.049,0.168 -0.223,0.425 -0.336,0.645c-0.756,1.465 -1.558,2.908 -2.242,4.406c-0.315,0.691 -0.66,1.417 -0.132,2.279c0.232,0.378 0.018,1.073 -0.09,1.604c-0.159,0.783 -0.416,1.544 -0.609,2.321c-0.158,0.631 -0.289,1.267 -0.42,1.904c-0.132,0.638 -0.239,1.281 -0.374,1.918c-0.145,0.683 -0.281,1.37 -0.476,2.039c-0.153,0.524 0.122,1.165 -0.659,1.548c-0.332,0.163 -0.329,0.993 -0.5,1.512c-0.052,0.158 -0.175,0.293 -0.266,0.438c-0.1,-1.105 0.07,-2.158 0.075,-3.212c0.004,-1.04 0.956,-2.029 0.061,-3.362c-0.426,1.087 -0.925,1.957 -1.104,2.889c-0.754,3.924 -1.391,7.87 -2.114,11.799c-0.407,2.212 -0.852,4.419 -1.363,6.608c-0.504,2.161 -0.677,4.366 -1.009,6.549c-0.245,1.612 -0.287,3.254 -0.528,4.867c-0.162,1.087 -0.487,2.133 0.073,3.207c0.121,0.231 0.036,0.594 -0.016,0.885c-0.209,1.181 -0.351,2.383 -0.684,3.529c-0.902,3.101 -1.484,6.261 -1.894,9.455c-0.164,1.273 -0.04,2.591 -0.284,3.842c-0.251,1.292 0.547,2.489 0.148,3.754c-0.039,0.126 0.017,0.308 0.083,0.435c0.395,0.762 0.135,1.434 -0.333,2.033c0.832,0.676 1.158,1.848 0.873,2.983c-0.312,-0.466 -0.616,-0.921 -0.934,-1.396c-0.838,0.843 -0.525,1.722 -0.469,2.638c-0.209,-0.32 -0.418,-0.64 -0.721,-1.105c-0.163,0.374 -0.255,0.587 -0.395,0.906c-0.258,-0.732 -0.487,-1.384 -0.822,-2.335c-0.159,0.497 -0.265,0.674 -0.265,0.851c0.004,2.702 0.138,5.389 1.012,7.982c0.252,0.747 0.471,1.506 0.735,2.249c0.462,1.295 0.598,2.749 1.809,3.684c0.495,0.382 0.979,0.743 1.195,1.426c0.096,0.303 0.668,0.558 1.065,0.64c0.525,0.108 1.089,0.027 1.724,0.027c-0.021,0.849 0.404,1.166 1.168,1.238c0.337,0.032 0.818,0.291 0.937,0.573c0.674,1.595 2.296,1.638 3.382,2.324c0.287,-0.61 0.395,-1.383 0.786,-1.574c1.288,-0.63 2.666,-1.088 4.036,-1.531c0.517,-0.167 1.087,-0.07 1.24,0.57c2.406,-0.902 4.699,-1.865 7.06,-2.616c2.08,-0.662 4.231,-1.104 6.357,-1.614c2.672,-0.641 5.348,-1.262 8.028,-1.868c0.679,-0.153 1.376,-0.258 2.07,-0.306c1.21,-0.084 2.288,-0.369 3.255,-1.204c0.622,-0.538 1.436,-0.961 2.233,-1.165c1.495,-0.383 3.047,-0.533 4.561,-0.848c2.521,-0.523 4.86,-0.234 6.943,1.383c0.622,0.483 1.203,1.028 1.864,1.448c1.029,0.653 2.146,1.412 3.371,1.203c1.284,-0.219 2.472,-0.068 3.691,0.172c1.266,0.249 2.438,0.141 3.589,-0.553c0.525,-0.316 1.245,-0.308 1.876,-0.448c0.338,-0.075 0.728,-0.069 1.003,-0.244c1.427,-0.907 2.963,-1.707 4.202,-2.83c2.209,-2.005 3.599,-4.457 2.984,-7.63c-0.027,-0.14 0.002,-0.306 0.051,-0.443c0.387,-1.096 0.786,-2.188 1.218,-3.382c-0.65,-0.268 -1.549,-0.186 -1.829,-1.105c0.127,-0.326 0.267,-0.683 0.41,-1.049c-0.37,-0.104 -0.679,-0.19 -1.041,-0.292c0.169,-0.542 0.308,-0.987 0.514,-1.645c-0.622,0.28 -1.041,0.468 -1.5,0.674c-0.22,-0.41 -0.404,-0.753 -0.599,-1.114c0.936,-1.901 0.936,-1.901 0.173,-2.558c-0.361,0.233 -0.724,0.466 -1.086,0.7c-0.046,-0.063 -0.091,-0.126 -0.136,-0.188c0.488,-0.709 0.975,-1.418 1.463,-2.127c-0.071,-0.049 -0.142,-0.099 -0.213,-0.148c-0.507,0.453 -1.013,0.906 -1.752,1.567c0.441,-1.437 -0.839,-0.593 -1.081,-1.398c0.525,-1.295 1.116,-2.75 1.816,-4.474c-0.576,0.531 -0.932,0.859 -1.399,1.289c-0.134,-0.671 -0.241,-1.206 -0.355,-1.776c-0.212,0.089 -0.474,0.199 -0.771,0.323c-0.119,-0.254 -0.231,-0.495 -0.337,-0.721c-0.374,0.1 -0.683,0.183 -0.993,0.267c-0.075,-0.302 -0.123,-0.494 -0.183,-0.733c-0.517,0.343 -1.004,0.686 -1.511,0.996c-0.374,0.228 -0.789,0.594 -1.16,0.565c-0.376,-0.03 -0.719,-0.469 -1.076,-0.728c-0.465,0.487 -0.718,1.024 -1.602,1.18c-1.178,0.208 -2.482,0.592 -3.226,1.797c-0.308,0.498 -0.733,0.921 -1.061,1.408c-1.15,1.711 -3.209,2.528 -4.259,4.341c-0.084,0.145 -0.335,0.21 -0.522,0.273c-1.782,0.599 -3.54,1.294 -5.357,1.753c-1.804,0.456 -3.664,0.711 -5.51,0.981c-2.041,0.299 -4.089,0.558 -6.142,0.757c-1.923,0.186 -3.871,0.156 -5.779,0.425c-2.748,0.386 -5.454,1.207 -8.264,0.483c-0.135,-0.035 -0.291,-0.009 -0.434,0.014c-2.16,0.35 -4.316,0.717 -6.478,1.051c-0.782,0.121 -1.577,0.163 -2.342,0.239c-0.69,-1.034 -0.306,-2.382 -1.324,-3.13c-0.028,-0.021 -0.027,-0.089 -0.029,-0.135c-0.096,-1.902 0.019,-3.751 0.911,-5.509c0.54,-1.064 0.974,-2.198 1.317,-3.342c0.859,-2.86 1.625,-5.747 2.464,-8.613c0.134,-0.457 0.348,-1.007 0.705,-1.258c0.883,-0.62 1.823,-1.211 2.824,-1.596c2.283,-0.879 4.616,-1.627 6.929,-2.426c0.139,-0.048 0.288,-0.098 0.433,-0.098c2.245,0.004 4.447,-0.228 6.539,-1.119c0.15,-0.064 0.342,-0.028 0.557,-0.041c0,0.297 0,0.497 0,0.844c0.811,-0.739 1.498,-1.429 2.566,-1.152c0.065,0.305 0.117,0.553 0.142,0.67c0.914,-0.199 1.714,-0.423 2.53,-0.519c0.242,-0.029 0.751,0.298 0.756,0.471c0.024,0.964 0.708,0.851 1.277,0.835c1.06,-0.03 2.117,-0.134 3.359,-0.219c0.081,0.09 0.308,0.345 0.573,0.64c0.493,-0.194 0.998,-0.41 1.516,-0.588c0.321,-0.11 0.667,-0.244 0.992,-0.223c0.99,0.064 1.985,0.141 2.957,0.323c0.941,0.177 1.538,-0.311 2.065,-0.913c0.624,-0.712 1.181,-1.483 1.74,-2.248c0.33,-0.452 0.562,-0.926 0.294,-1.534c-0.17,-0.384 -0.375,-0.891 -0.253,-1.23c0.139,-0.382 0.628,-0.637 0.885,-0.874c-0.776,-1.231 -1.798,-2.29 -1.911,-3.791c1.595,-0.899 2.495,-2.313 3.18,-3.769c-0.471,-0.479 -0.815,-0.83 -1.154,-1.174c-0.642,0.802 -1.592,0.259 -2.414,0.396c-0.052,0.009 -0.119,-0.071 -0.304,-0.191c0.491,-0.075 0.863,-0.132 1.231,-0.189c-0.606,-0.041 -1.198,-0.081 -1.812,-0.123c-0.064,-0.478 -0.12,-0.893 -0.199,-1.477c-0.859,0 -1.649,0.02 -2.437,-0.007c-0.545,-0.018 -1.16,0.046 -1.618,-0.18c-1.418,-0.699 -2.685,-0.835 -3.961,0.326c-0.52,0.474 -1.25,0.626 -2.008,0.699c-1.533,0.148 -3.145,0.206 -4.553,0.747c-2.442,0.938 -5.122,0.94 -7.483,2.107c-0.524,0.259 -1.088,0.452 -1.652,0.606c-0.608,0.166 -1.387,0.538 -1.826,0.31c-0.821,-0.426 -1.536,-0.109 -2.292,-0.1c-0.322,0.004 -0.644,0.094 -1.091,0.165c0.184,-1.321 0.362,-2.496 0.51,-3.674c0.163,-1.234 0.311,-2.475 0.424,-3.718zm-13.515,38.604c-0.11,2.328 -0.541,4.64 -0.256,6.985c0.011,0.089 -0.052,0.187 -0.115,0.389c-0.939,0.021 -1.608,-0.275 -2.001,-1.264c-0.306,0.321 -0.554,0.595 -0.816,0.853c-0.682,0.673 -1.16,0.682 -1.685,-0.127c-0.396,-0.61 -0.611,-1.338 -0.924,-2.054c-0.232,0.706 -0.467,1.423 -0.703,2.141c-0.077,0.001 -0.155,0.003 -0.232,0.004c-0.065,-0.239 -0.172,-0.476 -0.189,-0.718c-0.067,-0.986 -0.047,-1.981 -0.187,-2.955c-0.058,-0.403 -0.509,-0.734 -0.656,-1.144c-0.435,-1.215 -0.048,-2.444 0.11,-3.643c0.18,-1.361 0.586,-2.693 0.853,-3.858c0.865,-0.413 1.622,-0.774 2.588,-1.234c0.251,0.453 0.566,1.02 0.863,1.554c0.28,-0.48 0.62,-1.064 0.979,-1.679c0.556,1.086 0.927,2.065 1.513,2.891c0.846,1.194 0.919,2.569 0.858,3.859zm14.817,-19.864c-0.246,0.778 -0.672,1.09 -1.648,0.648c0.7,-0.275 1.174,-0.462 1.648,-0.648z" class="st0"/>
    <path stroke="null" id="svg_7" d="m5304.578286,3961.087989c0.002,0.02 0.001,0.038 0.002,0.057c0.007,-0.011 0.016,-0.022 0.023,-0.033l-0.025,-0.024z" class="st0"/>
    <path stroke="null" id="svg_8" d="m5301.424286,3965.615989c0.009,0.006 0.017,0.013 0.017,0.013c-0.004,-0.018 -0.011,-0.037 -0.016,-0.056c-0.005,0.011 -0.01,0.022 -0.015,0.034c0,0 0.002,0.001 0.002,0.001c-0.002,0.005 -0.005,0.01 -0.007,0.015c0.013,0.003 0.023,0.002 0.037,0.006l-0.018,-0.013z" class="st0"/>
    <path stroke="null" id="svg_9" d="m5305.262286,3969.980989c0,0 0,0 0,0c0.004,0.002 0.007,0.001 0.012,0.002l-0.012,-0.002z" class="st0"/>
    <path stroke="null" id="svg_10" d="m5304.423286,3948.870989c-0.947,1.667 -1.875,3.345 -2.81,5.019c-0.166,0.332 -0.333,0.665 -0.5,0.997c-0.018,0.2 -0.004,0.41 -0.06,0.599c-0.577,1.945 -1.699,3.619 -2.684,5.361c-0.003,0.002 -0.004,0.004 -0.007,0.006c0,0.002 0,0.004 0,0.006c0,0 0.009,-0.009 0.018,-0.018l0.018,-0.018c-0.16,0.418 -0.319,0.835 -0.479,1.253c-0.036,-0.478 0.051,-0.908 0.443,-1.222c-0.01,-0.222 -0.02,-0.444 -0.029,-0.665c-0.067,-0.016 -0.135,-0.033 -0.203,-0.049c-0.406,1.08 -0.812,2.16 -1.217,3.241c0.09,-0.018 0.166,-0.045 0.232,-0.081c0.131,-0.072 0.22,-0.177 0.288,-0.298c-0.068,0.121 -0.157,0.226 -0.288,0.298c-0.066,0.036 -0.142,0.064 -0.232,0.081c-0.987,2.02 -1.939,4.059 -2.972,6.055c-0.722,1.397 -1.312,2.886 -2.526,3.988c-0.281,0.254 -0.367,0.712 -0.589,1.044c-0.29,0.434 -0.549,1.052 -0.962,1.203c-0.708,0.258 -0.981,0.77 -1.309,1.324c-0.625,1.058 -1.276,2.102 -1.916,3.151c0,-0.16 0,-0.321 0,-0.481c-0.066,-0.01 -0.133,-0.021 -0.2,-0.031c-0.142,0.298 -0.283,0.596 -0.478,1.005c0.281,-0.096 0.39,-0.134 0.5,-0.172c-0.052,0.773 -0.673,0.819 -1.374,1.011c-1.077,-2.673 -2.244,-5.321 -3.209,-8.041c-0.694,-1.956 -1.099,-4.005 -1.409,-6.076c-0.286,-1.911 -0.879,-3.774 -1.243,-5.676c-0.443,-2.308 -0.77,-4.637 -1.18,-6.952c-0.417,-2.355 -0.857,-4.707 -1.316,-7.054c-0.593,-3.038 -1.099,-6.101 -1.863,-9.096c-0.576,-2.259 -1.236,-4.533 -2.555,-6.526c-0.153,-0.231 -0.197,-0.538 -0.273,-0.814c-1.003,-3.651 -2.035,-7.294 -2.988,-10.958c-0.34,-1.309 -0.528,-2.663 -0.703,-4.007c-0.066,-0.511 -0.042,-1.128 0.189,-1.565c0.409,-0.772 0.283,-1.549 0.315,-2.336c0.027,-0.658 0.116,-1.316 0.113,-1.973c-0.007,-1.565 -0.051,-3.13 -0.081,-4.694c-0.019,-0.949 -0.049,-1.898 -0.056,-2.847c-0.001,-0.219 0.077,-0.439 0.119,-0.659c-0.071,-0.015 -0.141,-0.03 -0.212,-0.045c-0.08,0.311 -0.16,0.623 -0.239,0.934c-0.152,-0.505 -0.157,-0.984 -0.151,-1.464c0.015,-1.25 -1.275,-2.727 -2.509,-2.74c-0.43,-0.004 -0.682,-0.127 -0.959,-0.395c-1.042,-1.011 -2.415,-0.836 -3.692,-0.993c-0.112,-0.014 -0.256,0.034 -0.349,0.103c-0.81,0.6 -1.611,0.495 -2.336,-0.057c-0.793,0.479 -1.717,0.561 -2.207,1.384c-0.092,0.154 -0.453,0.239 -0.669,0.209c-0.727,-0.1 -1.257,0.222 -1.754,0.68c-0.15,0.138 -0.313,0.289 -0.499,0.358c-0.439,0.164 -0.907,0.128 -1.099,0.793c-0.111,0.386 -0.743,0.618 -1.135,0.926c-0.264,0.208 -0.587,0.384 -0.763,0.653c-0.306,0.467 -0.447,1.049 -0.783,1.487c-1.23,1.608 -1.877,3.523 -2.862,5.257c-0.96,1.69 -1.25,3.739 -2.76,5.133c-0.079,0.073 -0.074,0.233 -0.118,0.348c-1.292,3.354 -2.77,6.617 -4.68,9.673c-0.26,0.416 -0.563,0.863 -0.636,1.329c-0.222,1.421 -1.319,2.517 -1.41,3.977c-0.012,0.191 -0.157,0.379 -0.257,0.559c-1.744,3.133 -3.5,6.258 -5.232,9.397c-1.1,1.994 -1.88,4.121 -2.507,6.304c-0.08,0.277 -0.06,0.582 -0.087,0.874c1.603,-3.398 3.045,-6.814 5.066,-9.947c0.048,0.23 0.003,0.419 -0.078,0.593c-0.832,1.797 -1.685,3.584 -2.501,5.389c-0.508,1.124 -1.01,2.256 -1.423,3.416c-0.228,0.641 -0.133,1.412 -0.419,2.013c-0.672,1.412 -0.571,3.106 -1.635,4.363c-0.075,0.088 -0.094,0.228 -0.127,0.347c-0.48,1.763 -1.693,3.16 -2.41,4.805c-0.07,0.162 -0.299,0.278 -0.478,0.366c-0.689,0.334 -0.995,0.918 -1.182,1.627c-0.82,3.115 -1.698,6.215 -2.485,9.338c-1.007,4.002 -1.976,8.015 -2.905,12.036c-0.575,2.489 -1.104,4.992 -1.55,7.507c-0.475,2.678 -1.534,5.218 -1.697,7.975c-0.125,2.121 -0.508,4.227 -0.784,6.404c0.742,0.345 0.818,0.968 0.7,1.668c-0.117,0.691 0.166,1.076 0.769,1.5c0.879,0.617 1.93,1.061 2.493,2.112c0.214,0.399 0.708,0.673 1.117,0.938c0.656,0.425 1.34,0.809 2.026,1.186c0.498,0.273 1.021,0.719 1.526,0.71c1,-0.018 1.831,0.388 2.722,0.677c0.503,0.163 1.041,0.31 1.561,0.303c0.858,-0.012 1.72,-0.113 2.568,-0.254c0.679,-0.113 1.353,-0.298 2.002,-0.528c1.101,-0.391 1.98,-1.137 2.878,-1.863c0.658,-0.532 1.244,-1.075 1.493,-1.915c0.081,-0.271 0.254,-0.514 0.369,-0.777c0.458,-1.048 1.05,-2.061 1.336,-3.155c0.559,-2.142 -0.211,-4.195 -0.735,-6.24c-0.094,-0.368 -0.456,-0.681 -0.729,-0.988c-0.329,-0.37 -0.735,-0.677 -1.036,-1.066c-0.271,-0.35 -0.565,-0.754 -0.639,-1.171c-0.26,-1.457 -0.407,-2.933 -0.644,-4.395c-0.104,-0.643 -0.149,-1.404 -0.521,-1.873c-0.798,-1.005 -1.068,-2.011 -0.677,-3.222c0.1,-0.31 0.125,-0.646 0.17,-0.973c0.081,-0.58 -0.006,-1.072 -0.327,-1.63c-0.78,-1.359 -1.323,-2.812 -1.145,-4.462c0.068,-0.633 -0.036,-1.339 -0.259,-1.939c-0.404,-1.086 -0.5,-2.151 -0.276,-3.279c0.068,-0.346 0.005,-0.731 -0.063,-1.087c-0.078,-0.412 -0.225,-0.811 -0.382,-1.351c-0.145,-0.037 -0.514,-0.261 -0.766,-0.168c-0.677,0.248 -1.095,-0.168 -1.578,-0.444c-0.874,-0.499 -0.851,-0.543 -0.721,-1.584c0.075,-0.597 0.002,-1.212 -0.01,-1.819c-0.006,-0.287 -0.088,-0.588 -0.028,-0.859c0.242,-1.083 0.532,-2.155 0.792,-3.234c0.22,-0.908 0.424,-1.82 0.646,-2.78c-0.963,-0.506 -1.126,-1.201 -0.614,-2.154c0.223,-0.416 0.278,-0.958 0.29,-1.447c0.047,-1.919 0.819,-3.572 1.803,-5.156c0.691,-1.112 1.42,-2.201 2.069,-3.337c0.344,-0.603 0.474,-1.332 0.84,-1.917c0.826,-1.318 1.739,-2.582 2.661,-3.933c0.434,-0.074 1.039,0.183 1.38,-0.428c0.247,-0.441 0.556,-0.848 0.925,-1.401c0.088,0.452 0.14,0.717 0.172,0.879c0.282,0.074 0.478,0.125 0.691,0.181c-0.058,0.221 -0.072,0.346 -0.122,0.455c-0.55,1.201 -1.612,2.205 -1.416,3.697c0.014,0.108 -0.087,0.228 -0.122,0.346c-0.258,0.864 -0.532,1.724 -0.753,2.598c-0.044,0.175 0.119,0.401 0.276,0.868c1.618,-2.198 3.095,-4.205 4.575,-6.216c0.318,0.223 0.511,0.357 0.743,0.519c1.044,-1.474 2.041,-2.934 3.101,-4.347c0.328,-0.437 0.826,-0.746 1.247,-1.114c0.545,0.443 0.723,-0.097 0.932,-0.387c0.745,-1.034 1.424,-2.118 2.192,-3.134c0.635,-0.841 1.108,-2.008 2.703,-1.605c0.184,0.618 0.419,1.312 0.594,2.021c0.357,1.443 0.686,2.893 1.016,4.342c0.641,2.811 1.277,5.624 1.912,8.437c0.227,1.006 0.427,2.018 0.677,3.018c0.649,2.599 1.348,5.187 1.973,7.792c1.067,4.448 2.037,8.919 3.156,13.353c0.663,2.627 1.536,5.2 2.309,7.799c0.152,0.512 0.157,1.119 0.447,1.529c0.726,1.029 0.757,2.239 1.038,3.377c0.17,0.692 0.239,1.377 0.848,1.864c0.129,0.103 0.155,0.348 0.204,0.534c0.143,0.549 0.217,1.124 0.423,1.648c0.329,0.839 0.756,1.64 1.118,2.467c0.923,2.113 1.815,4.239 2.754,6.345c0.382,0.859 0.363,1.963 1.437,2.437c0.129,0.057 0.21,0.374 0.201,0.565c-0.046,0.919 0.822,1.743 0.273,2.719c-0.063,0.112 0.044,0.318 0.07,0.481c0.263,1.682 1.073,3.101 2.182,4.346c0.558,0.627 1.062,1.246 1.086,2.143c0.891,0.223 1.468,0.725 1.902,1.496c0.501,0.889 1.297,1.342 2.384,1.132c0.21,-0.041 0.532,0.016 0.667,0.157c0.513,0.532 0.993,0.411 1.56,0.102c0.3,-0.164 0.686,-0.173 0.987,-0.242c-0.051,-0.382 -0.094,-0.708 -0.175,-1.308c0.472,0.344 0.715,0.483 0.91,0.672c0.31,0.301 0.756,0.405 0.992,0.151c0.266,-0.285 0.406,-0.772 0.418,-1.177c0.008,-0.261 -0.32,-0.527 -0.48,-0.802c-0.082,-0.14 -0.124,-0.302 -0.256,-0.636c0.607,0.359 0.995,0.743 1.432,0.811c0.746,0.115 1.522,0.032 2.304,0.032c-0.026,-0.091 -0.111,-0.235 -0.102,-0.373c0.064,-1.008 0.974,-1.545 1.347,-2.383c1.831,-0.593 3.033,-2.08 4.481,-3.206c0.548,-0.426 1.013,-0.722 1.729,-0.734c1.052,-0.018 1.391,-0.414 1.139,-1.415c-0.199,-0.79 0.02,-1.228 0.661,-1.637c0.279,-0.178 0.651,-0.579 0.613,-0.821c-0.154,-0.985 -0.875,-1.82 -0.828,-2.878c-0.884,-0.361 -0.521,-0.877 -0.155,-1.367c0.511,-0.683 0.678,-1.449 0.803,-2.289c0.323,-2.157 0.699,-4.314 1.809,-6.254c1.148,-2.007 2.309,-4.008 3.405,-6.043c0.721,-1.34 1.344,-2.734 1.995,-4.111c0.108,-0.229 0.134,-0.496 0.226,-0.857c-1.449,0.624 -1.495,2.298 -2.783,2.893c1.004,-2.017 2.008,-4.034 3.036,-6.099c-1.102,-0.066 -0.061,-0.747 -0.465,-1.09c-0.276,0.785 -1.004,1.375 -0.696,2.185c-2.043,1.962 -2.361,4.921 -4.27,6.991c0.012,-0.207 -0.009,-0.331 0.03,-0.431c0.73,-1.879 1.421,-3.776 2.219,-5.626c0.618,-1.431 1.373,-2.804 2.066,-4.202c-0.333,-0.094 -0.5,0.077 -0.658,0.359c-0.325,0.584 -0.69,1.145 -1.039,1.715c-0.065,-0.035 -0.131,-0.07 -0.197,-0.105c2.72,-5.935 5.44,-11.869 8.16,-17.804c-0.343,0.032 -0.544,0.157 -0.599,0.328c-0.54,1.653 -1.847,2.866 -2.454,4.517c-0.667,1.814 -1.725,3.483 -2.596,5.224c-0.535,1.068 -1.027,2.158 -1.557,3.229c-0.875,1.769 -1.742,3.542 -2.658,5.29c-0.664,1.268 -1.402,2.497 -2.185,3.883c-0.508,-1.051 -0.125,-1.87 0.224,-2.608c0.825,-1.747 1.775,-3.435 2.632,-5.169c0.484,-0.979 0.882,-2 1.414,-3.221c-0.511,0.316 -0.765,0.472 -1.269,0.784c0.553,-1.147 1.011,-2.015 1.393,-2.916c0.318,-0.75 0.79,-1.467 0.708,-2.34c-0.286,0.419 -0.625,0.814 -0.839,1.267c-1.336,2.819 -2.628,5.658 -3.973,8.473c-0.193,0.404 -0.364,0.922 -0.925,1.092c-0.44,-0.512 -0.095,-0.883 0.094,-1.271c0.824,-1.694 1.645,-3.389 2.468,-5.084c-0.449,-0.1 -0.595,0.21 -0.767,0.552c-0.441,0.876 -0.933,1.727 -1.375,2.603c-0.326,0.646 -0.585,1.326 -0.913,1.97c-0.257,0.505 -0.575,0.979 -0.867,1.467c0.112,-2.236 0.792,-4.241 1.737,-6.173c0.616,-1.259 1.156,-2.554 1.751,-3.823c0.185,-0.395 0.194,-0.683 -0.29,-0.889c-0.369,0.547 -0.735,1.09 -1.102,1.632c-0.03,-0.02 -0.06,-0.04 -0.09,-0.06c0.524,-1.354 1.047,-2.709 1.587,-4.106c-0.347,-0.04 -0.512,-0.059 -0.681,-0.078c0.956,-3.824 3.231,-6.957 4.825,-10.408c-0.521,-0.184 -0.632,0.264 -0.798,0.558z" class="st0"/>
    <polygon stroke="null" id="svg_11" points="5305.2206909656525,3948.3108587265015 5305.2245972156525,3948.3108587265015 5305.2216675281525,3948.3108587265015 " class="st0"/>
    <path stroke="null" id="svg_12" d="m5372.201286,3937.751989c0.004,-0.01 0.008,-0.02 0.012,-0.03c-0.009,0.002 -0.017,0.005 -0.025,0.007l0.013,0.023z" class="st0"/>
    <path stroke="null" id="svg_13" d="m5401.116286,3924.702989c-0.158,-0.11 -0.258,-0.306 -0.379,-0.466c-0.144,-0.189 -0.26,-0.524 -0.425,-0.548c-0.535,-0.08 -0.72,-0.494 -1.02,-0.828c-0.354,-0.394 -0.727,-0.808 -1.175,-1.074c-0.829,-0.492 -1.603,-1.005 -2.08,-1.88c-0.26,-0.477 -0.804,-0.506 -1.03,-0.166c-0.505,0.758 -1.268,0.446 -1.873,0.621c-0.276,0.33 -0.528,0.632 -0.792,0.948c-0.475,-0.275 -0.864,-0.5 -1.232,-0.713c-1.232,0.52 -2.398,1.15 -3.806,0.756c-0.586,0.796 -1.358,1.105 -2.04,0.83c-0.848,0.286 -1.445,0.493 -2.046,0.687c-0.155,0.05 -0.331,0.04 -0.481,0.097c-2.995,1.144 -6.019,2.218 -8.971,3.462c-3.192,1.344 -6.402,2.621 -9.708,3.648c-0.249,0.077 -0.616,0.119 -0.801,-0.008c-0.491,-0.338 -1.023,-0.231 -1.502,-0.205c-0.22,-0.451 -0.307,-1.012 -0.596,-1.148c-0.905,-0.429 -1.067,-1.257 -1.4,-2.038c-0.412,-0.965 -0.922,-1.889 -1.41,-2.872c-0.134,0.578 -0.261,1.126 -0.398,1.721c-0.335,0 -0.69,-0.109 -0.839,0.02c-0.487,0.422 -0.818,0.173 -1.179,-0.141c-0.218,-0.19 -0.471,-0.347 -0.66,-0.562c-0.424,-0.482 -0.936,-0.62 -1.56,-0.562c-0.237,0.022 -0.515,-0.089 -0.731,-0.213c-0.351,-0.202 -0.666,-0.465 -0.918,-0.645c-0.529,0.525 -0.986,0.979 -1.444,1.432c-0.445,0.44 -0.358,1.277 -1.093,1.531c-0.431,-0.627 -0.838,-1.218 -1.268,-1.844c-0.242,0.498 -0.451,0.928 -0.658,1.353c-0.246,-0.102 -0.423,-0.175 -0.652,-0.27c-0.69,1.285 -1.499,2.496 -2.018,3.822c-0.895,2.288 -1.745,4.612 -2.364,6.986c-0.69,2.643 -1.269,5.339 -1.566,8.048c-0.158,1.442 -0.254,2.909 -0.504,4.337c-0.589,3.368 -1.258,6.722 -1.977,10.065c-0.649,3.014 -1.393,6.007 -2.124,9.002c-0.436,1.787 -0.928,3.561 -1.398,5.339c-0.092,0.347 -0.238,0.683 -0.296,1.034c-0.133,0.813 -0.185,1.641 -0.346,2.447c-0.632,3.152 -1.426,6.277 -1.907,9.451c-0.461,3.048 -0.913,6.111 -0.986,9.207c-0.013,0.535 0.007,1.077 -0.071,1.604c-0.213,1.455 0.035,2.875 0.301,4.288c0.125,0.665 0.378,1.308 0.605,1.95c0.26,0.736 0.521,1.475 0.845,2.184c0.249,0.545 -0.117,1.149 0.084,1.58c0.541,1.159 0.836,2.517 2.146,3.185c0.252,0.129 0.412,0.439 0.746,0.812c-0.448,0.034 -0.673,0.051 -0.926,0.071c0.177,0.537 0.431,0.75 0.943,0.734c1.447,-0.045 2.904,-0.071 3.891,1.302c0.114,0.159 0.333,0.366 0.486,0.352c0.694,-0.062 0.935,0.549 1.315,0.879c0.469,-0.205 0.863,-0.506 1.273,-0.529c0.662,-0.038 1.068,-0.3 1.391,-0.854c0.244,-0.417 0.575,-0.788 0.899,-1.152c0.155,-0.174 0.364,-0.357 0.579,-0.409c0.95,-0.229 1.96,-0.293 2.852,-0.655c0.582,-0.236 1.238,-0.794 1.439,-1.358c0.376,-1.059 0.878,-1.804 1.918,-1.966c1.177,-0.184 2.363,-0.317 3.363,-0.449c-0.623,-0.032 -1.433,-0.074 -2.243,-0.116c0.928,-0.36 1.832,-0.689 2.754,-0.748c2.39,-0.155 4.79,-0.14 7.18,-0.291c2.301,-0.146 4.599,-0.381 6.891,-0.639c2.088,-0.235 4.173,-0.512 6.246,-0.854c0.871,-0.144 1.566,0.229 1.951,0.787c0.78,1.132 1.819,1.276 3.008,1.212c0.279,-0.015 0.605,-0.132 0.83,-0.028c0.846,0.389 1.66,0.848 2.392,1.232c0.63,-0.25 1.203,-0.68 1.757,-0.656c1.352,0.058 2.105,-0.376 2.325,-1.781c0.11,-0.708 0.562,-1.282 1.444,-1.272c0.228,0.003 0.576,-0.074 0.669,-0.231c0.7,-1.195 1.851,-2.265 1.123,-3.894c-0.199,-0.444 -0.11,-1.045 -0.368,-1.428c-0.489,-0.724 -0.726,-1.655 -1.603,-2.101c-0.139,-0.07 -0.272,-0.396 -0.225,-0.547c0.249,-0.792 -0.253,-1.185 -0.769,-1.551c0.078,-0.595 0.151,-1.152 0.261,-1.982c-0.585,0.658 -0.998,1.123 -1.445,1.625c-0.266,-0.282 -0.582,-0.464 -0.576,-0.636c0.034,-1.015 0.143,-2.027 0.222,-2.986c-0.63,-0.144 -1.26,-0.072 -1.865,0.328c-0.163,0.108 -0.573,0.001 -0.762,-0.146c-0.118,-0.091 -0.102,-0.466 -0.027,-0.671c0.141,-0.384 0.385,-0.73 0.554,-1.106c0.239,-0.533 0.449,-1.079 0.696,-1.683c-1.125,0.076 -1.137,1.495 -2.148,1.422c-0.717,-0.522 -0.558,-1.229 -0.454,-1.905c-1.054,0.615 -1.604,1.956 -3.068,1.705c-0.097,-0.017 -0.257,0.057 -0.316,0.139c-0.496,0.693 -1.173,1.155 -1.83,1.682c-1.135,0.911 -2.046,2.098 -3.087,3.132c-0.362,0.36 -0.6,0.873 -1.238,0.945c-1.227,0.139 -2.442,0.39 -3.669,0.536c-3.156,0.377 -6.325,0.526 -9.505,0.446c-0.611,-0.016 -1.225,0.185 -1.84,0.203c-1.107,0.033 -2.217,0.04 -3.323,-0.009c-2.101,-0.093 -4.187,-0.765 -6.307,-0.151c-0.056,0.016 -0.139,-0.066 -0.213,-0.104c-0.276,-0.872 0.543,-1.172 0.93,-1.709c-0.16,-0.199 -0.305,-0.38 -0.502,-0.626c-0.451,1.135 -1.068,0.419 -1.604,0.269c-0.342,-0.891 -0.899,-1.692 -0.614,-2.749c0.061,-0.227 -0.066,-0.93 -0.763,-1.149c-0.824,-0.26 -0.93,-0.845 -0.647,-1.815c0.03,-0.102 0.004,-0.219 0.004,-0.336c-0.374,-0.029 -0.713,-0.055 -1.012,-0.078c-0.04,-0.71 -0.175,-1.327 -0.087,-1.911c0.214,-1.425 0.484,-2.846 0.826,-4.245c0.202,-0.827 0.491,-1.661 0.902,-2.403c0.948,-1.709 2.8,-0.824 4.18,-1.33c0.267,-0.098 0.596,-0.017 0.895,-0.038c0.22,-0.016 0.438,-0.064 0.713,-0.106c0.045,0.531 -0.806,0.87 -0.172,1.338c1.102,-0.579 2.169,-1.193 3.284,-1.7c0.569,-0.259 1.118,-0.929 1.885,-0.316c0.104,0.083 0.463,-0.079 0.66,-0.199c0.728,-0.445 1.424,-0.942 2.16,-1.371c0.217,-0.126 0.527,-0.091 0.782,-0.128c0.346,1.226 -0.903,1.958 -0.92,3.277c1.018,-0.455 1.781,-0.924 2.61,-1.129c0.716,-0.177 1.357,-0.743 2.233,-0.402c0.456,0.178 1.21,0.188 1.562,-0.078c1.001,-0.757 2.114,-0.347 3.158,-0.51c0.441,-0.069 0.929,0.166 1.374,0.259c0.204,-0.189 0.411,-0.541 0.625,-0.545c0.468,-0.009 0.94,0.158 1.457,0.263c0.434,-0.99 1.314,-0.389 1.831,-0.271c0.519,0.118 1.371,0.448 1.398,1.551c0.577,-0.385 1.091,-0.67 1.531,-1.042c0.308,-0.259 0.503,-0.648 0.769,-0.961c0.495,-0.584 0.985,-1.036 1.894,-0.673c0.375,0.15 0.927,-0.119 1.392,-0.227c0.196,-0.046 0.403,-0.274 0.556,-0.233c0.886,0.235 1.156,-0.349 1.441,-0.98c0.602,-1.329 1.455,-2.519 2.653,-3.316c1.148,-0.764 1.412,-1.737 1.299,-2.971c-0.096,-1.043 -0.413,-1.9 -1.556,-2.229c-0.244,-0.07 -0.463,-0.324 -0.632,-0.541c-0.552,-0.704 -1.062,-1.441 -1.619,-2.141c-0.145,-0.182 -0.393,-0.29 -0.608,-0.405c-0.669,-0.36 -1.472,-0.56 -1.653,-1.476c-0.02,-0.1 -0.151,-0.197 -0.253,-0.259c-0.505,-0.308 -1.017,-0.604 -1.526,-0.903c-0.533,1.474 -1.273,1.697 -2.529,0.761c-0.186,-0.139 -0.393,-0.25 -0.606,-0.384c-0.312,0.367 -0.569,0.671 -0.747,0.881c-0.768,-0.242 -1.538,-0.773 -2.06,-0.591c-1.142,0.399 -2.499,-0.426 -3.478,0.676c-0.088,0.099 -0.395,-0.001 -0.6,0c-0.157,0.001 -0.378,-0.049 -0.459,0.033c-0.813,0.819 -1.905,0.837 -2.921,1.137c-2.803,0.828 -5.569,1.783 -8.346,2.701c-2.201,0.728 -4.396,1.475 -6.841,2.296c0.561,-1.11 1.013,-2.004 1.541,-3.048c-0.083,-0.272 -0.083,-0.272 0.558,-1.862l-0.032,0.037c0.091,-1.009 0.052,-2.053 0.785,-2.994c0.325,0.413 -0.205,1.307 0.724,1.266c0.495,-0.569 1.131,-1.072 1.454,-1.73c0.392,-0.797 0.58,-1.712 0.75,-2.596c0.712,-3.683 1.37,-7.376 2.087,-11.058c0.09,-0.464 0.369,-0.916 0.654,-1.305c0.106,-0.144 0.654,-0.012 0.709,-0.135c0.494,-1.109 1.642,-1.224 2.536,-1.61c2.038,-0.879 4.153,-1.58 6.241,-2.341c0.265,-0.097 0.555,-0.124 0.833,-0.183c0.135,-0.016 0.27,-0.033 0.404,-0.049c0.343,-0.146 0.685,-0.291 1.028,-0.437c0.289,-0.158 0.577,-0.317 0.938,-0.514c-0.092,0.234 -0.148,0.375 -0.201,0.51c0.851,-0.241 1.71,-0.458 2.55,-0.732c1.108,-0.362 2.141,-1.162 3.398,-0.513c0.27,0.015 0.539,0.031 0.808,0.046c0.589,-0.177 1.176,-0.361 1.769,-0.528c0.233,-0.066 0.576,-0.219 0.7,-0.121c0.847,0.676 1.658,0.353 2.522,-0.01c-0.485,0.722 -1.342,0.825 -2.209,1.337c1.173,0.018 2.01,-0.847 2.986,-0.251c0.094,0.058 0.384,-0.284 0.608,-0.342c0.412,-0.106 0.814,-0.729 1.281,-0.073c0.034,0.048 0.209,0.042 0.29,0.003c1.243,-0.6 2.527,-0.478 3.814,-0.237c0.267,0.471 0.531,0.938 0.788,1.393c0.267,-0.127 0.379,-0.183 0.492,-0.234c0.724,-0.332 1.358,-0.786 2.291,-0.573c0.758,0.173 1.642,0.118 2.397,-0.097c1.074,-0.305 2.119,-0.621 3.252,-0.605c0.282,0.004 0.657,-0.16 0.836,-0.374c0.942,-1.129 1.727,-2.412 2.778,-3.42c0.916,-0.877 1.177,-1.522 0.758,-2.841c-0.714,-2.226 -1.365,-3.57 -3.215,-4.853zm-67.037,70.514c-0.383,0.972 -0.348,1.896 -0.344,2.847c0.002,0.608 0.199,1.215 0.293,1.825c0.028,0.182 0.004,0.372 -0.217,0.633c-0.115,-0.259 -0.26,-0.508 -0.339,-0.778c-0.666,-2.295 -0.687,-4.655 -0.564,-7.006c0.097,-1.848 0.372,-3.688 0.586,-5.529c0.037,-0.317 0.166,-0.624 0.253,-0.935c0.064,-0.007 0.128,-0.013 0.193,-0.02c0.089,0.373 0.26,0.748 0.25,1.119c-0.023,0.904 -0.161,1.805 -0.194,2.71c-0.03,0.821 0.007,1.645 0.032,2.467c0.029,0.898 0.352,1.903 0.051,2.667z" class="st0"/>
    <path stroke="null" id="svg_14" d="m5502.989286,3942.697989c-0.332,-0.139 -0.51,-0.112 -0.62,-0.011c-1.078,0.993 -2.129,2.015 -3.216,2.996c-2.107,1.9 -4.252,3.757 -6.341,5.676c-0.785,0.722 -1.51,0.78 -2.321,0.15c0.08,-0.221 0.107,-0.496 0.258,-0.646c1.447,-1.436 2.921,-2.844 4.377,-4.271c0.382,-0.375 0.936,-0.68 0.716,-1.641c-2.342,2.049 -4.556,3.985 -6.77,5.923c-0.128,-0.157 -0.231,-0.283 -0.393,-0.481c-0.135,0.236 -0.238,0.417 -0.342,0.598c-0.076,0.136 -0.152,0.271 -0.228,0.407c-0.332,0.56 -0.623,1.15 -1.006,1.672c-0.465,0.634 -1.054,1.177 -1.507,1.818c-0.909,1.286 -1.882,2.518 -3.134,3.474c-0.487,0.371 -1.14,0.524 -1.72,0.771c-1.567,0.668 -2.566,1.965 -3.598,3.229c-0.22,0.269 -0.569,0.748 -0.73,0.7c-0.893,-0.267 -1.202,0.419 -1.614,0.887c-2.266,2.573 -4.101,5.502 -6.585,7.903c-1.031,0.996 -1.919,2.14 -3.027,3.392c-0.069,-0.47 -0.127,-0.719 -0.138,-0.969c-0.075,-1.821 -0.14,-3.642 -0.209,-5.462c-0.036,-0.934 -0.075,-1.868 -0.108,-2.802c-0.075,-2.173 -0.379,-4.372 -0.143,-6.511c0.171,-1.548 0.181,-3.01 -0.1,-4.51c-0.033,-0.174 0.006,-0.363 -0.042,-0.53c-0.06,-0.21 -0.118,-0.485 -0.274,-0.591c-0.917,-0.627 -1.846,-1.24 -2.804,-1.8c-0.473,-0.276 -1.017,-0.431 -1.673,-0.699c-0.063,0.034 -0.288,0.156 -0.46,0.248c-1.351,-0.295 -1.946,-1.484 -2.862,-2.347c-0.857,0.766 -1.637,0.708 -2.359,-0.1c-0.059,-0.065 -0.137,-0.162 -0.206,-0.161c-0.274,0 -0.582,-0.033 -0.805,0.084c-0.099,0.052 -0.049,0.433 -0.027,0.661c0.03,0.319 0.246,0.731 0.117,0.933c-0.258,0.401 -0.685,0.242 -1.063,0.026c-0.176,-0.1 -0.4,-0.149 -0.605,-0.157c-0.58,-0.02 -1.162,-0.007 -1.805,-0.007c-0.125,0.291 -0.306,0.714 -0.517,1.205c-0.357,-0.18 -0.593,-0.29 -0.821,-0.416c-0.921,-0.508 -1.189,-0.401 -1.498,0.628c-0.085,0.281 -0.133,0.574 -0.167,0.723c-0.698,0.245 -1.3,0.37 -1.813,0.655c-0.851,0.473 0.171,1.216 -0.181,1.821c-0.486,0.103 -0.986,0.208 -1.363,0.288c-0.166,0.58 -0.224,1.122 -0.47,1.558c-0.322,0.57 -0.779,1.068 -1.202,1.577c-2.808,3.374 -5.717,6.656 -8.81,9.776c-1.807,1.823 -3.502,3.758 -5.285,5.607c-0.276,0.286 -0.751,0.38 -1.136,0.559c-0.341,0.158 -0.748,0.239 -1.011,0.48c-0.42,0.384 -0.732,0.882 -1.112,1.313c-0.898,1.019 -1.81,2.026 -2.871,3.21c-0.633,-1.904 -0.833,-3.603 -0.912,-5.313c-0.145,-3.113 -0.003,-6.218 0.476,-9.299c0.072,-0.465 0.187,-1.04 0.5,-1.32c0.314,-0.28 0.901,-0.255 1.49,-0.392c0.192,-0.464 0.496,-1.012 0.645,-1.6c0.249,-0.989 0.42,-2 0.584,-3.009c0.101,-0.622 0.15,-1.204 0.845,-1.536c0.251,-0.12 0.394,-0.562 0.493,-0.886c0.301,-0.973 0.597,-1.951 0.816,-2.944c0.185,-0.836 0.51,-1.498 1.369,-1.811c0.18,-0.066 0.4,-0.262 0.441,-0.436c0.303,-1.273 1.355,-1.826 2.33,-2.415c1.38,-0.834 2.323,-2.536 1.359,-4.286c-0.145,-0.264 -0.051,-0.672 -0.03,-1.011c0.038,-0.606 0.351,-1.346 0.109,-1.788c-0.532,-0.968 -1.339,-1.784 -2.036,-2.661c-1.003,-1.264 -2.007,-2.527 -3.041,-3.829c-1.233,0.888 -1.409,-0.985 -2.373,-0.776c-0.692,-1.063 -1.385,-2.125 -2.087,-3.203c-0.817,0.343 -0.822,0.339 -1.531,1.128c-0.317,0.353 -0.63,0.46 -1.028,0.118c-0.178,-0.153 -0.4,-0.256 -0.621,-0.393c-0.152,0.724 -0.285,1.352 -0.434,2.059c-0.79,-0.061 -1.482,-0.003 -2.098,-0.193c-0.603,-0.187 -1.128,-0.626 -1.731,-0.98c-0.248,0.324 -0.499,0.654 -0.776,1.017c-0.546,-0.428 -1.021,-0.801 -1.528,-1.2c-1.173,3.313 -1.282,3.49 -2.218,3.647c0.079,-0.295 0.158,-0.592 0.237,-0.889c-0.08,-0.037 -0.16,-0.074 -0.24,-0.11c-0.262,0.482 -0.536,0.957 -0.781,1.446c-0.199,0.396 -0.273,0.893 -0.559,1.2c-0.958,1.027 -1.394,2.317 -1.623,3.603c-0.512,2.881 -0.845,5.795 -1.224,8.699c-0.085,0.654 -0.012,1.328 -0.095,1.982c-0.209,1.653 -0.505,3.296 -0.692,4.951c-0.14,1.238 -0.077,2.503 -0.274,3.729c-0.129,0.801 -0.334,1.582 -0.114,2.372c0.177,0.636 0.16,1.193 -0.189,1.769c-0.1,0.165 0.016,0.46 0.035,0.696c0.018,0.221 0.063,0.443 0.051,0.662c-0.015,0.282 -0.125,0.566 -0.106,0.843c0.085,1.275 0.255,2.547 0.286,3.823c0.018,0.756 0.281,1.172 1.014,1.313c0.23,0.044 0.449,0.141 0.924,0.295c-1.139,0.542 -0.625,1.27 -0.589,1.924c0.039,0.718 0.069,1.436 0.102,2.154c0.055,-0.002 0.11,-0.004 0.165,-0.006c0.109,-0.303 0.219,-0.607 0.414,-1.148c0.076,0.422 0.112,0.588 0.135,0.755c0.204,1.495 0.518,2.946 1.112,4.357c0.806,1.914 1.589,3.847 1.933,5.927c0.141,0.855 0.474,1.682 0.762,2.507c0.305,0.871 0.708,1.709 0.977,2.589c0.136,0.445 0.406,1.025 -0.336,1.441c-0.248,-0.404 -0.545,-0.749 -0.685,-1.148c-0.271,-0.771 -0.674,-1.289 -1.629,-1.198c0.197,0.656 0.39,1.3 0.575,1.915c-1.305,0.042 -1.812,-0.796 -2.318,-1.683c0.057,0.402 0.174,0.764 0.339,1.101c0.801,1.642 1.599,3.276 1.554,5.182c-0.006,0.273 0.282,0.595 0.505,0.825c1.254,1.289 1.7,2.73 1.434,4.64c-0.027,0.191 0.064,0.493 0.207,0.6c0.986,0.739 1.947,1.54 3.024,2.118c0.732,0.393 1.342,0.852 1.835,1.481c0.632,0.807 1.513,1.205 2.439,1.469c1.935,0.552 3.866,0.119 5.788,-0.167c0.256,-0.038 0.5,-0.172 0.744,-0.275c0.733,-0.306 1.44,-0.707 2.2,-0.908c1.085,-0.287 1.644,-0.898 1.812,-2.007c0.12,-0.794 0.442,-1.439 1.362,-1.777c0.878,-0.323 1.369,-1.186 1.263,-2.152c-0.134,-1.222 -0.431,-2.425 -0.637,-3.641c-0.094,-0.555 -0.294,-1.153 -0.179,-1.673c0.448,-2.032 0.823,-4.048 0.588,-6.153c-0.14,-1.258 0.598,-2.275 1.302,-3.229c-0.985,-1.002 -1.044,-1.238 -0.495,-2.45c0.361,-0.796 0.786,-1.564 1.162,-2.354c0.066,-0.137 0.034,-0.322 0.049,-0.512c-1.305,0.373 -1.305,0.373 -1.883,-0.415c0.476,-2.689 2.36,-4.593 3.394,-6.894c1.081,-2.406 2.955,-4.125 4.417,-6.172c-0.865,-0.822 -0.947,-1.06 -0.483,-1.547c0.946,-0.992 1.904,-1.973 2.881,-2.932c0.271,-0.266 0.631,-0.441 1.232,-0.849c-0.457,1.281 0.184,2.169 0.132,3.136c-0.03,0.553 0.205,0.958 0.636,1.229c0.727,0.457 0.895,1.173 0.948,1.932c0.064,0.93 0.065,1.865 0.106,2.797c0.148,3.356 0.591,6.693 0.306,10.077c-0.193,2.287 -0.063,4.602 -0.045,6.904c0.004,0.572 0.123,1.144 0.206,1.714c0.1,0.692 0.286,1.378 0.316,2.071c0.091,2.123 0.133,4.248 0.168,6.373c0.003,0.178 -0.187,0.36 -0.337,0.632c-0.284,-0.725 0.196,-1.449 -0.387,-1.976c-0.226,0.612 -0.458,1.146 -0.614,1.701c-0.077,0.274 -0.109,0.628 -0.001,0.876c0.478,1.1 0.892,2.259 1.561,3.237c0.859,1.256 1.457,2.607 2.07,3.979c0.626,1.403 1.467,2.682 2.937,3.424c0.611,0.308 1.239,0.715 1.66,1.238c0.799,0.99 1.804,1.238 2.96,1.121c1.312,-0.133 2.568,-0.05 3.753,0.606c0.485,0.269 1.001,0.326 1.522,0.01c1.094,-0.663 2.217,-1.279 3.298,-1.962c1.11,-0.702 1.937,-1.673 2.549,-2.842c0.347,-0.664 0.86,-1.25 1.151,-1.934c0.431,-1.01 0.935,-2.061 1.015,-3.124c0.055,-0.727 0.113,-1.361 0.42,-1.964c-0.107,-0.779 -0.267,-1.594 -0.072,-2.313c0.345,-1.271 0.907,-2.484 1.378,-3.721c-0.056,-0.034 -0.112,-0.068 -0.168,-0.102c-0.24,0.341 -0.48,0.683 -0.72,1.024c0.416,-1.427 0.844,-2.775 1.537,-3.97c1.466,-2.529 3.072,-4.976 4.615,-7.461c0.327,-0.526 0.627,-1.068 1.068,-1.821c-0.465,0.224 -0.645,0.309 -0.824,0.395c-0.056,-0.055 -0.111,-0.111 -0.167,-0.166c0.749,-1.148 1.497,-2.296 2.245,-3.443c-0.061,-0.045 -0.122,-0.091 -0.182,-0.136c-0.306,0.282 -0.612,0.565 -0.919,0.848c0.925,-1.793 1.851,-3.543 2.945,-5.18c1.182,-1.768 2.551,-3.409 3.783,-5.146c0.853,-1.202 1.611,-2.472 2.411,-3.711c-0.079,-0.056 -0.158,-0.112 -0.237,-0.168c-0.325,0.348 -0.648,0.698 -0.974,1.045c-0.564,0.599 -1.422,0.733 -1.884,0.296c-0.493,-0.466 -0.443,-1.083 0.097,-1.782c0.348,-0.45 0.787,-0.896 0.94,-1.416c0.356,-1.212 1.117,-2.098 1.967,-2.961c1.678,-1.706 3.333,-3.434 5.074,-5.232c-0.394,-0.441 -0.209,-0.826 0.246,-1.263c1.852,-1.776 3.641,-3.617 5.494,-5.392c1.6,-1.534 3.259,-3.004 4.879,-4.517c0.328,-0.307 0.772,-0.56 0.853,-1.145c-1.159,0.264 -1.497,1.685 -2.987,1.747c1.027,-1.176 1.894,-2.171 2.761,-3.167zm-12.552,8.824c-0.233,0.252 -0.472,0.511 -0.876,0.95c0.253,-0.968 0.265,-0.995 0.876,-0.95z" class="st0"/>
    <polygon stroke="null" id="svg_15" points="5305.2245972156525,3948.3108587265015 5305.2236206531525,3948.3049993515015 5305.2206909656525,3948.3098821640015 " class="st0"/>
    <path stroke="null" id="svg_16" d="m5324.731286,3936.253989c-0.001,-0.015 -0.002,-0.03 -0.004,-0.045c-0.007,0.007 -0.013,0.015 -0.02,0.022l0.024,0.023z" class="st0"/>
    <path stroke="null" id="svg_17" d="m5344.587286,3913.371989c-0.002,0.002 -0.004,0.005 -0.006,0.007c0.01,0.006 0.018,0.011 0.028,0.016l-0.022,-0.023z" class="st0"/>
    <path stroke="null" id="svg_18" d="m5332.014286,3928.165989c0.236,0.135 0.468,0.268 0.743,0.425c1.25,-1.572 1.938,-3.441 3.235,-4.939c1.264,-1.459 1.853,-3.439 3.481,-4.669c-0.15,0.356 -0.301,0.712 -0.463,1.097c2.332,-1.292 3.621,-3.493 5.381,-5.221c-0.214,-0.248 -0.36,-0.418 -0.497,-0.577c0.258,-0.339 0.472,-0.62 0.686,-0.902c-0.513,-0.278 -0.535,-0.474 -0.103,-0.888c0.818,-0.784 0.817,-1.425 0.005,-2.159c-0.146,-0.132 -0.299,-0.281 -0.384,-0.454c-0.243,-0.495 -0.368,-1.072 -0.694,-1.499c-0.594,-0.777 -1.115,-1.853 -2.076,-2.023c-0.934,-0.165 -1.335,-0.799 -1.489,-1.357c-0.384,-1.389 -1.638,-1.771 -2.554,-2.499c-0.483,-0.384 -0.995,-0.634 -1.218,-1.264c-0.104,-0.294 -0.363,-0.533 -0.611,-0.879c-0.479,0.119 -1.017,0.135 -1.393,0.39c-0.227,0.154 -0.204,0.677 -0.3,1.063c-0.382,-0.636 -1.045,-0.718 -1.551,-0.559c-1.187,0.373 -2.305,-0.027 -3.485,-0.065c0.032,-0.144 0.076,-0.258 0.075,-0.371c-0.001,-0.091 -0.058,-0.18 -0.101,-0.303c-1.585,0.72 -1.851,2.402 -2.82,3.632c-0.377,-0.413 -0.692,-0.777 -1.032,-1.115c-0.064,-0.063 -0.225,-0.029 -0.394,-0.045c-0.114,0.343 -0.221,0.666 -0.335,1.008c-0.22,-0.166 -0.37,-0.278 -0.433,-0.326c-0.66,1.218 -1.286,2.372 -1.912,3.526c-0.137,0.252 -0.442,0.556 -0.383,0.748c0.304,0.991 -0.469,1.601 -0.768,2.365c-0.298,0.762 -0.736,1.469 -1.097,2.209c-0.038,0.078 0.033,0.21 0.056,0.329c0.287,-0.083 0.536,-0.154 0.911,-0.262c-0.518,1.275 -0.946,2.419 -1.444,3.53c-0.836,1.866 -1.739,3.701 -2.57,5.569c-0.328,0.739 -0.541,1.529 -0.804,2.297c-0.62,1.806 -1.92,3.263 -2.554,5.082c-0.402,1.151 -1.103,2.208 -1.739,3.266c-1.464,2.434 -2.98,4.837 -4.452,7.266c-0.431,0.713 -0.786,1.472 -1.175,2.21c0.055,0.03 0.109,0.059 0.164,0.088c0.193,-0.112 0.387,-0.225 0.707,-0.41c-0.038,1.638 -1.009,2.786 -1.448,3.923c0.111,0.455 0.349,0.883 0.23,1.04c-0.465,0.614 -0.333,1.225 -0.187,1.864c0.741,-1.593 1.449,-3.193 2.415,-4.682c0.501,-0.772 1.029,-1.21 1.931,-1.194c0.319,0.696 0.341,0.708 -0.005,1.322c-1.2,2.123 -2.346,4.273 -3.301,6.52c0.668,-0.269 0.785,-0.957 1.078,-1.498c0.467,-0.861 0.884,-1.749 1.298,-2.576c0.309,-0.021 0.473,-0.046 0.636,-0.041c1.474,0.04 1.941,-0.285 2.609,-1.668c0.224,-0.464 0.515,-1.083 0.923,-1.236c1.189,-0.445 1.871,-1.408 2.585,-2.216c1.051,-0.06 0.806,1.131 1.522,1.347c0.327,-0.347 0.652,-0.737 1.129,-0.143c0.244,-0.327 0.413,-0.69 0.696,-0.896c0.31,-0.225 0.733,-0.285 1.09,-0.456c0.134,-0.063 0.228,-0.225 0.321,-0.356c0.856,-1.212 1.69,-2.44 2.567,-3.637c0.552,-0.753 0.841,-1.767 1.879,-2.129c0.05,0.539 0.092,0.992 0.133,1.443c0.391,-0.42 0.781,-0.84 1.157,-1.244c0.772,0.499 0.559,1.096 0.371,1.71c1.378,-1.257 2.309,-2.774 3.126,-4.378c0.483,-0.948 0.993,-1.884 1.528,-2.804c0.22,-0.378 0.532,-0.704 0.809,-1.049c0.074,-0.094 0.174,-0.168 0.295,-0.28z" class="st0"/>
    <path stroke="null" id="svg_19" d="m5306.239286,3950.320989c0.007,-0.017 0.015,-0.034 0.022,-0.05c-0.018,0.007 -0.032,0.017 -0.051,0.024l0.029,0.026z" class="st0"/>
    <path stroke="null" id="svg_20" d="m5303.203286,3960.899989c-0.663,1.269 -1.348,2.527 -1.955,3.822c-0.099,0.21 0.094,0.556 0.178,0.851c0.686,-1.547 1.538,-3.027 2.039,-4.752c-0.191,0.055 -0.25,0.055 -0.262,0.079z" class="st0"/>
    <path stroke="null" id="svg_21" d="m5298.971286,3992.935989c0.129,-0.08 0.347,-0.141 0.37,-0.245c0.257,-1.141 0.484,-2.288 0.718,-3.434c-0.365,0.477 -0.574,1 -0.7,1.541c-0.164,0.705 -0.262,1.425 -0.388,2.138z" class="st0"/>
    <polygon stroke="null" id="svg_22" points="5298.9706909656525,3992.9400091171265 5298.9716675281525,3992.9358587265015 5298.9687378406525,3992.9378118515015 " class="st0"/>
    <path stroke="null" id="svg_23" d="m5300.616286,3955.119989c0.005,-0.013 0.009,-0.025 0.014,-0.038c-0.013,0.005 -0.025,0.01 -0.038,0.015l0.024,0.023z" class="st0"/>
    <path stroke="null" id="svg_24" d="m5301.525286,3953.251989c-0.071,-0.014 -0.142,-0.028 -0.212,-0.042c-0.228,0.624 -0.456,1.248 -0.683,1.872c0.161,-0.065 0.323,-0.13 0.484,-0.195c0.167,-0.332 0.333,-0.665 0.5,-0.997c-0.03,-0.213 -0.06,-0.426 -0.089,-0.638z" class="st0"/>
    <path stroke="null" id="svg_25" d="m5309.418286,3951.003989c-0.008,0 -0.017,0 -0.024,0l0.019,0.01c0.002,-0.003 0.004,-0.007 0.005,-0.01z" class="st0"/>
    <path stroke="null" id="svg_26" d="m5309.849286,3950.963989c0.364,-0.639 0.766,-1.269 0.925,-1.993c-0.081,-0.042 -0.163,-0.083 -0.244,-0.125c-0.371,0.719 -0.741,1.439 -1.112,2.158c0.158,-0.006 0.39,0.032 0.431,-0.04z" class="st0"/>
    <path stroke="null" id="svg_27" d="m5308.921286,3952.033989c0.001,0.004 0.001,0.008 0.003,0.013c0.001,-0.003 0.002,-0.006 0.003,-0.009c0.001,-0.001 0.001,-0.002 0.002,-0.003c-0.002,0 -0.004,0 -0.006,0c-0.001,0 -0.002,-0.001 -0.002,-0.001z" class="st0"/>
    <path stroke="null" id="svg_28" d="m5308.924286,3952.046989c-0.266,0.719 -0.529,1.44 -0.792,2.161c0.532,-0.635 1.087,-1.265 0.792,-2.161z" class="st0"/>
    <path stroke="null" id="svg_29" d="m5306.218286,3950.379989c-0.299,0.633 -0.601,1.264 -0.903,1.893c0.709,-0.438 1.002,-1.073 0.903,-1.893z" class="st0"/>
    <path stroke="null" id="svg_30" d="m5306.244286,3950.325989c-0.005,-0.004 -0.033,-0.031 -0.033,-0.031c0.004,0.029 0.004,0.056 0.008,0.085c0.008,-0.019 0.017,-0.036 0.025,-0.054z" class="st0"/>
    <path stroke="null" id="svg_31" d="m5307.474286,3964.762989c0.207,-0.444 0.415,-0.888 0.623,-1.332c-0.642,0.211 -0.604,0.788 -0.623,1.332z" class="st0"/>
    <path stroke="null" id="svg_32" d="m5295.694286,3962.086989c0.426,-0.283 0.733,-0.486 1.04,-0.69c-0.527,-0.125 -0.984,-0.145 -1.04,0.69z" class="st0"/>
    <path stroke="null" id="svg_33" d="m5303.063286,3957.588989c0.158,-0.345 0.316,-0.69 0.474,-1.035c-0.053,-0.023 -0.105,-0.046 -0.158,-0.069c-0.167,0.341 -0.335,0.681 -0.502,1.021c0.062,0.028 0.124,0.056 0.186,0.083z" class="st0"/>
    <path stroke="null" id="svg_34" d="m5305.263286,3969.959989c0.183,-0.576 0.371,-1.147 0.558,-1.719c-0.301,0.542 -0.995,0.995 -0.558,1.719z" class="st0"/>
    <path stroke="null" id="svg_35" d="m5305.258286,3969.976989c0.004,0.004 0.016,0.006 0.016,0.006c-0.005,-0.008 -0.006,-0.015 -0.01,-0.023c-0.002,0.006 -0.004,0.011 -0.006,0.017z" class="st0"/>
    <path stroke="null" id="svg_36" d="m5353.375286,3961.206989c0.061,0.011 0.121,0.021 0.181,0.032c0.077,-0.34 0.153,-0.681 0.23,-1.022c-0.038,-0.004 -0.076,-0.008 -0.114,-0.012c-0.134,0.231 -0.268,0.462 -0.402,0.694c0,0 0.032,-0.037 0.032,-0.038c0.024,0.115 0.049,0.23 0.073,0.346z" class="st0"/>
    <path stroke="null" id="svg_37" d="m5299.874286,3957.017989c-0.055,-0.02 -0.109,-0.041 -0.163,-0.061c-0.14,0.333 -0.28,0.666 -0.42,0.998c0.075,0.029 0.15,0.057 0.225,0.086c0.119,-0.341 0.239,-0.682 0.358,-1.023z" class="st0"/>
    <path stroke="null" id="svg_38" d="m5295.331286,3962.724989c-0.199,0.375 -0.328,0.62 -0.457,0.864c0.402,-0.107 0.875,-0.183 0.457,-0.864z" class="st0"/>
    <path stroke="null" id="svg_39" d="m5405.659286,3975.294989c0.046,0.016 0.092,0.032 0.137,0.048c0,-0.413 0,-0.827 0,-1.241c-0.046,0 -0.092,0 -0.137,0c0,0.399 0,0.796 0,1.193z" class="st0"/>
    <path stroke="null" id="svg_40" d="m5299.963286,3954.274989c-0.07,-0.034 -0.139,-0.069 -0.209,-0.103c-0.136,0.277 -0.273,0.555 -0.409,0.832c0.069,0.034 0.138,0.068 0.207,0.102c0.137,-0.277 0.274,-0.554 0.411,-0.831z" class="st0"/>
    <path stroke="null" id="svg_41" d="m5309.409286,3951.037989c-0.158,0.334 -0.32,0.665 -0.48,0.997c0.84,-0.049 0.864,-0.088 0.48,-0.997z" class="st0"/>
    <path stroke="null" id="svg_42" d="m5309.418286,3951.018989c-0.005,-0.005 -0.024,-0.015 -0.024,-0.015c0.006,0.013 0.009,0.022 0.014,0.035c0.004,-0.007 0.007,-0.014 0.01,-0.02z" class="st0"/>
    <path stroke="null" id="svg_43" d="m5300.335286,3956.224989c0.076,-0.337 0.153,-0.674 0.23,-1.01c-0.165,0.305 -0.331,0.609 -0.497,0.913c0.089,0.033 0.178,0.065 0.267,0.097z" class="st0"/>
    <path stroke="null" id="svg_44" d="m5300.616286,3955.120989c-0.001,-0.001 -0.025,-0.023 -0.025,-0.023c-0.009,0.039 -0.018,0.078 -0.027,0.117c0.018,-0.031 0.035,-0.063 0.052,-0.094z" class="st0"/>
    <path stroke="null" id="svg_45" d="m5305.640286,3959.340989c0.206,-0.156 0.412,-0.312 0.618,-0.468c-0.807,-0.406 -0.651,0.085 -0.618,0.468z" class="st0"/>
    <path stroke="null" id="svg_46" d="m5297.222286,3959.264989c0.023,-0.189 0.045,-0.377 0.102,-0.838c-0.239,0.32 -0.341,0.4 -0.356,0.493c-0.018,0.113 0.037,0.238 0.061,0.358c0.064,-0.004 0.129,-0.009 0.193,-0.013z" class="st0"/>
    <path stroke="null" id="svg_47" d="m5300.132286,3952.547989c0.026,-0.053 -0.028,-0.144 -0.065,-0.302c-0.093,0.062 -0.145,0.077 -0.155,0.106c-0.08,0.219 -0.152,0.441 -0.227,0.662c0.049,0.011 0.132,0.044 0.142,0.029c0.111,-0.159 0.221,-0.321 0.305,-0.495z" class="st0"/>
    <path stroke="null" id="svg_48" d="m5291.925286,3970.600989c-0.088,-0.035 -0.176,-0.071 -0.264,-0.106c-0.047,0.159 -0.094,0.318 -0.142,0.477c0.048,0.021 0.096,0.042 0.144,0.062c0.088,-0.145 0.175,-0.289 0.262,-0.433z" class="st0"/>
    <path stroke="null" id="svg_49" d="m5299.134286,3994.248989c-0.054,-0.429 -0.109,-0.857 -0.163,-1.286c0.001,0.434 0.001,0.867 0.001,1.3c0.054,-0.005 0.108,-0.009 0.162,-0.014z" class="st0"/>
    <path stroke="null" id="svg_50" d="m5298.971286,3992.940989c0,-0.001 -0.003,-0.003 -0.003,-0.003c0.001,0.008 0.002,0.017 0.003,0.025c0,-0.007 0,-0.015 0,-0.022z" class="st0"/>
    <path stroke="null" id="svg_51" d="m5306.747286,3955.382989c0.086,-0.208 0.173,-0.416 0.259,-0.624c-0.042,-0.017 -0.083,-0.033 -0.125,-0.05c-0.091,0.204 -0.183,0.409 -0.274,0.613c0.046,0.021 0.093,0.041 0.14,0.061z" class="st0"/>
    <path stroke="null" id="svg_52" d="m5305.123286,3953.432989c0.038,-0.329 0.077,-0.658 0.115,-0.987c-0.14,0.305 -0.281,0.608 -0.423,0.911c0.103,0.025 0.205,0.05 0.308,0.076z" class="st0"/>
    <path stroke="null" id="svg_53" d="m5305.238286,3952.444989c0.016,-0.034 0.032,-0.067 0.047,-0.101c0,0 -0.002,-0.002 -0.003,-0.003c0.011,-0.023 0.022,-0.046 0.033,-0.069c-0.022,0.013 -0.04,0.028 -0.062,0.041c-0.005,0.045 -0.01,0.088 -0.015,0.132z" class="st0"/>
    <path stroke="null" id="svg_54" d="m5304.801286,3960.147989c-0.063,0.31 -0.127,0.62 -0.19,0.93c0.527,-0.129 0.585,-0.45 0.19,-0.93z" class="st0"/>
    <path stroke="null" id="svg_55" d="m5304.578286,3961.087989l0.026,0.024c0.002,-0.011 0.005,-0.023 0.007,-0.034c-0.012,0.003 -0.021,0.007 -0.033,0.01z" class="st0"/>
    <path stroke="null" id="svg_56" d="m5308.119286,3963.383989c-0.008,0.016 -0.015,0.031 -0.022,0.047c0.018,-0.006 0.031,-0.015 0.05,-0.02c0.006,-0.044 0.012,-0.087 0.017,-0.131c-0.016,0.034 -0.032,0.068 -0.048,0.103c0.001,-0.001 0.003,0.001 0.003,0.001z" class="st0"/>
    <path stroke="null" id="svg_57" d="m5308.288286,3962.331989c-0.041,0.316 -0.082,0.632 -0.124,0.948c0.136,-0.293 0.272,-0.585 0.41,-0.877c-0.095,-0.024 -0.191,-0.048 -0.286,-0.071z" class="st0"/>
    <path stroke="null" id="svg_58" d="m5774.394286,4006.044989c-0.214,-0.962 -0.408,-1.945 -0.777,-2.852c-0.369,-0.909 -0.495,-1.877 -0.986,-2.773c-1.032,-1.882 -1.716,-3.935 -2.509,-5.933c-1.223,-3.087 -1.635,-6.308 -1.694,-9.587c-0.04,-2.207 0.015,-4.417 0.049,-6.625c0.011,-0.724 -0.079,-1.451 0.357,-2.141c0.27,-0.428 0.292,-0.972 -0.14,-1.421c-0.139,-0.145 -0.231,-0.374 -0.263,-0.578c-0.173,-1.113 -0.547,-2.257 -0.419,-3.338c0.155,-1.303 -0.231,-2.5 -0.29,-3.75c-0.096,-2.045 -0.381,-4.08 -0.555,-6.122c-0.194,-2.27 -0.371,-4.541 -0.521,-6.815c-0.233,-3.513 -0.482,-7.027 -0.63,-10.544c-0.064,-1.518 0.092,-3.046 0.175,-4.568c0.052,-0.953 0.229,-1.906 0.215,-2.857c-0.015,-1.06 0.212,-2.034 0.661,-2.972c0.155,-0.324 0.27,-0.722 0.528,-0.931c0.616,-0.497 1.29,-0.926 1.971,-1.333c0.476,-0.284 1.108,-0.472 1.191,-1.062c0.117,-0.833 0.82,-1.556 0.375,-2.516c-0.215,-0.465 -0.165,-1.062 -0.197,-1.601c-0.03,-0.5 0.036,-1.009 -0.019,-1.505c-0.083,-0.744 -0.553,-1.34 -0.84,-2.001c-0.44,-1.015 -1.223,-1.623 -2.117,-1.922c-2.197,-0.733 -4.481,-1.239 -6.808,-1.195c-2.603,0.049 -5.203,0.285 -7.804,0.448c-0.513,0.032 -1.024,0.105 -1.537,0.148c-0.665,0.055 -1.201,0.325 -1.578,0.888c-0.234,0.351 -0.537,0.604 -0.981,0.612c-0.982,0.02 -1.547,0.688 -2.159,1.308c0.435,0.921 1.25,1.591 1.438,2.736c-0.38,0.03 -0.698,0.032 -1.006,0.085c-0.541,0.092 -0.855,0.518 -0.686,0.917c0.208,0.49 0.439,0.971 0.601,1.325c-0.28,0.598 -0.436,1.083 -0.709,1.489c-1.005,1.49 -2.053,2.951 -3.078,4.427c-1.739,2.502 -3.504,4.987 -5.195,7.522c-0.789,1.181 -1.768,2.259 -2.206,3.656c-1.626,1.687 -2.329,3.951 -3.642,5.839c-0.706,1.016 -1.198,2.183 -1.766,3.292c-0.516,1.007 -0.98,2.04 -1.514,3.037c-0.411,0.766 -0.914,1.481 -1.343,2.238c-1.025,1.807 -2.025,3.63 -3.047,5.439c-1.282,2.268 -2.545,4.547 -3.89,6.776c-0.272,0.452 -0.464,1.144 -1.146,1.209c-0.951,0.091 -1.91,0.152 -2.865,0.137c-1.577,-0.025 -3.154,-0.091 -4.728,-0.195c-1.389,-0.091 -2.785,-0.185 -4.024,-0.958c-0.899,-0.562 -1.832,-1.07 -2.738,-1.619c-0.62,-0.376 -1.321,-0.686 -1.803,-1.198c-0.58,-0.615 -1.243,-1.014 -1.985,-1.343c-0.7,-0.312 -0.979,-0.295 -1.452,0.256c-0.331,0.386 -0.556,0.86 -0.858,1.273c-0.161,0.222 -0.372,0.553 -0.582,0.57c-1.07,0.087 -1.482,0.852 -2.011,1.622c-0.611,0.89 -0.311,1.819 -0.388,2.732c-0.008,0.094 0.07,0.213 0.141,0.291c0.345,0.378 0.655,0.809 1.063,1.102c0.616,0.442 0.677,1.011 0.56,1.658c-0.058,0.323 -0.173,0.636 -0.257,0.955c-0.209,0.791 0.015,1.37 0.684,1.754c0.125,0.072 0.29,0.091 0.393,0.184c1.087,0.983 2.283,1.879 3.214,2.995c0.976,1.171 2.633,1.499 3.349,2.92c0.886,0.479 1.43,1.3 1.898,1.917c0.553,0.105 1.029,0.058 1.284,0.273c0.512,0.43 1.044,0.471 1.647,0.433c0.483,-0.031 0.973,-0.011 1.255,0.614c-0.701,1.474 -1.414,3.002 -2.152,4.518c-1.293,2.659 -2.793,5.18 -5.026,7.176c-0.368,0.329 -0.501,0.603 -0.229,1.031c0.075,0.118 0.125,0.261 0.15,0.4c0.282,1.552 0.554,3.106 0.834,4.659c0.218,1.214 0.784,1.741 1.971,1.956c0.932,0.168 1.862,0.369 2.774,0.622c1.444,0.4 2.918,0.696 4.298,1.324c0.771,0.35 1.562,0.601 2.054,1.375c0.166,0.261 0.481,0.572 0.751,0.596c0.77,0.068 1.319,0.377 1.686,1.051c0.066,0.121 0.204,0.262 0.327,0.284c1.035,0.181 2.09,0.517 3.107,0.43c0.59,-0.051 1.209,-0.218 1.82,-0.166c0.853,0.071 1.543,-0.271 2.068,-0.855c0.789,-0.877 1.576,-1.757 2.118,-2.842c0.976,-1.951 1.021,-2.143 0.151,-4.089c-0.03,-0.067 -0.034,-0.153 -0.08,-0.205c-1.027,-1.173 -0.837,-2.491 -0.437,-3.82c0.231,-0.764 0.512,-1.514 0.777,-2.289c-0.625,-0.305 -0.798,-0.822 -0.781,-1.467c0.028,-1.066 -0.086,-2.143 0.395,-3.154c0.076,-0.16 0.09,-0.358 0.094,-0.54c0.017,-0.687 -0.044,-1.381 0.037,-2.059c0.162,-1.342 0.148,-2.716 0.662,-4.005c0.275,-0.687 0.645,-1.134 1.444,-1.327c1.988,-0.479 3.989,-0.848 6.02,-1.082c1.642,-0.189 3.283,-0.404 4.912,-0.68c1.441,-0.244 2.865,-0.585 4.296,-0.888c0.143,-0.03 0.279,-0.094 0.417,-0.143c0.893,-0.312 1.814,-0.561 2.67,-0.954c1.102,-0.506 2.359,-0.493 3.422,-1.135c0.402,-0.242 0.949,-0.244 1.493,-0.371c0,0.807 0.051,1.469 -0.01,2.12c-0.146,1.572 -0.377,3.135 -0.513,4.707c-0.173,1.997 -0.775,3.859 -1.761,5.58c-0.323,0.563 -0.367,1.029 -0.097,1.546c0.425,0.808 0.431,1.774 1.06,2.517c0.317,0.374 0.067,0.743 -0.459,0.824c-0.178,0.027 -0.364,0.004 -0.518,0.004c-0.182,0.383 -0.348,0.733 -0.547,1.151c0.82,1.16 1.809,2.112 3.025,2.721c1.214,0.608 2.197,1.431 3.091,2.422c0.932,1.033 1.857,2.085 2.888,3.013c1.332,1.198 2.756,2.25 4.455,2.975c1.17,0.5 2.305,0.893 3.562,0.986c2.096,0.156 3.902,-0.449 5.313,-2.042c0.227,-0.256 0.375,-0.614 0.469,-0.95c0.247,-0.88 0.465,-1.769 0.654,-2.663c0.072,-0.352 0.115,-0.742 0.039,-1.084zm-20.457,-32.696c-2.612,0.017 -5.233,-0.271 -7.86,-0.367c-2.631,-0.097 -5.27,-0.014 -7.98,-0.475c0.124,-0.369 0.159,-0.581 0.26,-0.757c0.673,-1.174 1.358,-2.34 2.043,-3.507c0.754,-1.286 1.532,-2.56 2.264,-3.86c0.701,-1.245 1.364,-2.511 2.03,-3.776c1.044,-1.984 2.083,-3.971 3.108,-5.965c0.353,-0.686 0.65,-1.4 0.989,-2.093c0.8,-1.638 1.805,-3.144 2.907,-4.671c0.846,1.857 2.774,22.627 2.239,25.471z" class="st0"/>
    <path stroke="null" id="svg_59" d="m5675.120286,3976.690989c-0.022,0.029 -0.042,0.062 -0.063,0.092c0.036,-0.02 0.073,-0.041 0.109,-0.061l-0.046,-0.031z" class="st0"/>
    <path stroke="null" id="svg_60" d="m5698.175286,3960.552989c0.435,-0.335 1.056,-0.572 1.279,-1.012c0.71,-1.401 1.479,-2.807 1.519,-4.448c0.022,-0.934 0.114,-1.873 0.06,-2.802c-0.119,-2.062 -0.533,-4.02 -1.624,-5.86c-1.402,-2.364 -3.524,-3.962 -5.52,-5.712c-0.489,-0.429 -0.993,-0.847 -1.526,-1.219c-1.29,-0.902 -2.602,-1.772 -3.904,-2.658c-1.35,-0.919 -2.625,-1.982 -4.063,-2.732c-2.893,-1.509 -5.958,-2.487 -9.225,-2.996c-3.338,-0.521 -6.661,-0.767 -10.026,-0.72c-2.464,0.034 -4.922,0.182 -7.313,-0.809c-1.533,-0.635 -3.227,-0.87 -4.822,-1.368c-0.552,-0.172 -0.99,-0.712 -1.542,-0.874c-0.564,-0.165 -1.243,0.052 -1.801,-0.123c-0.841,-0.264 -1.542,-0.086 -2.151,0.204c0,1.216 0,2.331 0,3.456c-1.433,0.095 -2.778,0.206 -4.126,0.267c-3.078,0.14 -6.159,0.233 -9.236,0.402c-0.583,0.032 -1.143,0.414 -1.73,0.471c-0.596,0.058 -1.217,-0.167 -1.817,-0.125c-1.02,0.072 -2.029,0.277 -3.047,0.391c-2.397,0.269 -4.769,0.899 -7.222,0.38c-0.392,-0.083 -0.886,0.339 -1.34,0.508c-0.229,0.085 -0.485,0.203 -0.71,0.17c-0.277,-0.041 -0.534,-0.222 -1.018,-0.442c0.137,0.799 0.235,1.373 0.324,1.893c-0.3,0.359 -0.558,0.669 -0.853,1.021c0.619,0.813 1.547,1.414 1.302,2.566c0.748,0.775 0.878,1.816 1.209,2.773c0.089,0.257 0.222,0.592 0.432,0.696c0.72,0.357 0.832,1.074 1.164,1.678c1.243,2.271 1.871,5.036 4.737,6.039c0.079,0.028 0.143,0.12 0.2,0.193c1.096,1.413 2.19,2.828 3.323,4.293c1.008,-0.842 2.179,-1.011 3.411,-0.998c0.982,0.01 1.976,0.067 2.943,-0.062c3.029,-0.405 5.737,-1.885 8.653,-2.685c0.247,-0.068 0.427,-0.363 0.675,-0.452c0.261,-0.093 0.566,-0.066 0.909,-0.096c-0.026,0.332 -0.012,0.523 -0.058,0.697c-0.917,3.464 -1.816,6.934 -2.773,10.387c-0.919,3.316 -1.97,6.597 -2.835,9.927c-1.009,3.883 -1.878,7.802 -2.81,11.705c-0.627,2.622 -0.827,5.344 -1.915,7.864c-0.211,0.489 -0.51,1.206 -0.436,1.562c0.21,1.005 -0.174,1.817 -0.383,2.709c-0.49,2.095 -0.516,4.063 0.882,5.97c1.033,1.41 1.687,3.1 2.489,4.676c0.768,1.51 1.834,2.786 3.01,3.985c0.797,0.813 1.583,1.636 2.47,2.553c1.382,-0.473 1.928,0.654 2.449,1.924c1.534,-1.438 3.161,-2.182 5.161,-1.555c0.891,-1.084 1.678,-2.184 2.621,-3.128c0.479,-0.48 0.537,-0.967 0.492,-1.5c-0.126,-1.472 -0.267,-2.947 -0.506,-4.405c-0.161,-0.981 -0.488,-1.937 -0.771,-2.895c-0.046,-0.156 -0.244,-0.272 -0.383,-0.394c-1.281,-1.122 -1.803,-2.665 -1.89,-4.238c-0.125,-2.272 0.261,-4.531 0.862,-6.813c1.239,0 2.436,0 3.691,0c0.348,0.594 0.691,1.182 1.188,2.031c-1.636,0 -2.995,0 -4.355,0c-0.001,0.124 -0.003,0.247 -0.004,0.37c0.476,0 0.954,0.02 1.429,-0.005c0.691,-0.036 1.381,-0.103 2.071,-0.16c0.701,-0.058 1.082,0.264 1.39,0.907c0.867,1.812 1.82,3.583 2.738,5.37c0.256,0.498 0.656,0.973 0.741,1.498c0.33,2.063 1.751,3.455 2.916,5.01c1.004,1.34 1.993,2.691 3.012,4.02c0.876,1.142 1.656,2.402 2.71,3.352c1.325,1.194 2.877,2.139 4.353,3.158c0.353,0.244 0.797,0.357 1.198,0.531c-0.182,-0.713 -0.49,-1.224 -0.789,-1.74c-0.455,-0.785 -0.439,-1.236 0.05,-1.753c0.523,-0.554 0.913,-0.58 1.735,-0.153c0.284,0.148 0.597,0.361 0.888,0.348c0.74,-0.032 1.169,0.392 1.591,0.88c0.201,0.232 0.405,0.46 0.608,0.69c0,-0.512 -0.3,-0.877 -0.383,-1.285c-0.075,-0.37 -0.023,-0.869 0.185,-1.156c0.13,-0.179 0.658,-0.107 1.002,-0.08c0.234,0.019 0.459,0.153 0.974,0.34c-0.501,-0.857 -0.85,-1.454 -1.2,-2.051c0.077,-0.087 0.154,-0.174 0.231,-0.262c1.061,0.416 2.122,0.831 3.294,1.291c0.029,-0.998 -0.314,-1.605 -0.754,-2.222c-0.513,-0.719 -0.362,-1.007 0.518,-1.26c0.169,-0.049 0.352,-0.053 0.472,-0.07c0.42,-0.683 0.337,-1.17 -0.058,-1.832c-1.456,-2.442 -2.74,-4.986 -4.174,-7.442c-1.435,-2.457 -2.976,-4.851 -4.461,-7.278c-0.634,-1.037 -1.355,-1.973 -2.283,-2.795c-1.246,-1.104 -2.348,-2.371 -3.488,-3.543c0.207,-0.326 0.348,-0.547 0.546,-0.86c-0.581,0 -0.984,0 -1.5,0c1.14,-0.992 2.037,-2.031 3.159,-2.681c1.245,-0.721 2.505,-1.422 3.696,-2.228c0.318,-0.215 0.512,-0.613 0.746,-0.951c-0.355,0.196 -0.712,0.388 -1.061,0.594c-0.453,0.268 -0.898,0.551 -1.392,0.748c0.703,-1.182 2.168,-2.269 3.303,-2.503c0.2,-0.041 0.45,0.16 0.677,0.25l-0.026,-0.023c0.738,-0.54 1.477,-1.079 2.215,-1.62c2.96,-2.171 5.564,-4.783 8.59,-6.874c1.082,-0.748 2.249,-1.416 3.025,-2.551c0.129,-0.189 0.461,-0.241 0.772,-0.39c0.181,0.348 0.266,0.683 0.478,0.885c0.587,0.559 0.414,1.05 -0.015,1.581c-0.291,0.361 -0.57,0.735 -0.815,1.127c-0.154,0.247 -0.237,0.539 -0.404,0.936c0.786,-0.021 1.226,-0.306 1.46,-0.858c0.433,-1.021 0.904,-2.035 1.213,-3.094c0.184,-0.63 0.35,-1.016 1.044,-1.273c0.931,-0.345 1.732,-0.954 2.366,-1.808c0.415,-0.559 1.113,-0.913 1.687,-1.355zm-49.565,34.78c-0.411,-3.153 0.661,-5.802 0.987,-8.547c0.11,0.021 0.22,0.042 0.33,0.063c-0.423,2.725 -0.846,5.45 -1.317,8.484zm2.944,-7.399c1.163,0.098 2.161,-0.691 3.219,0.293c-1.634,0.399 -1.776,0.387 -3.219,-0.293zm3.938,-18.66c-0.299,0.409 -0.312,1.027 -0.478,1.634c-0.467,-0.091 -0.898,-0.175 -1.514,-0.296c0.267,-0.567 0.396,-1.036 0.675,-1.387c0.37,-0.466 0.531,-0.916 0.493,-1.523c-0.044,-0.706 0.127,-0.838 0.976,-1.264c0.425,0.969 0.547,1.882 -0.152,2.836zm27.18,-13.646c-2.274,2.938 -5.042,5.383 -7.885,7.698c-2.364,1.924 -5.012,3.531 -7.654,5.071c-1.466,0.854 -3.103,1.478 -4.893,1.558c-0.697,0.031 -1.418,0.36 -2.056,0.692c-1.071,0.557 -2.183,0.336 -3.518,0.397c0.534,-0.981 -0.95,-1.85 0.112,-2.65c0.17,0.076 0.315,0.141 0.454,0.204c0.083,-0.15 0.161,-0.226 0.162,-0.304c0.003,-0.232 0.005,-0.47 -0.044,-0.695c-0.323,-1.499 -0.323,-1.512 0.815,-2.444c-0.108,-0.395 -0.216,-0.788 -0.344,-1.252c0.649,-0.093 1.2,-0.663 0.795,-1.121c-0.765,-0.868 -0.128,-1.505 0.246,-1.938c0.627,-0.724 0.619,-1.368 0.276,-2.143c0.751,-0.049 0.925,-0.411 0.72,-1.069c-0.13,-0.417 -0.234,-0.862 -0.228,-1.293c0.005,-0.32 0.193,-0.642 0.324,-0.953c0.084,-0.199 0.326,-0.394 0.303,-0.564c-0.148,-1.079 0.215,-2.102 0.382,-3.129c0.167,-1.031 0.702,-1.998 1.002,-3.015c0.17,-0.576 0.473,-0.905 1.054,-0.945c1.345,-0.094 2.694,-0.257 4.037,-0.228c2.041,0.045 4.082,0.197 6.119,0.363c2.549,0.208 5.095,0.464 7.639,0.733c0.354,0.038 0.709,0.236 1.027,0.422c2.138,1.255 2.668,4.648 1.155,6.605z" class="st0"/>
   </g>
  </g>
 </g>
</svg>